<?xml version="1.0" encoding="UTF-8"?>
<!DOCTYPE svg PUBLIC "-//W3C//DTD SVG 1.1//EN" "http://www.w3.org/Graphics/SVG/1.1/DTD/svg11.dtd">
<!-- Creator: CorelDRAW X7 -->
<svg xmlns="http://www.w3.org/2000/svg" xml:space="preserve" width="84.5188mm" height="162.548mm" version="1.1" style="shape-rendering:geometricPrecision; text-rendering:geometricPrecision; image-rendering:optimizeQuality; fill-rule:evenodd; clip-rule:evenodd"
viewBox="0 0 8452 16255"
 xmlns:xlink="http://www.w3.org/1999/xlink">
 <defs>
  <style type="text/css">
   <![CDATA[
    .fil2 {fill:#EEEEEF}
    .fil1 {fill:#E95A6F}
    .fil0 {fill:black}
   ]]>
  </style>
 </defs>
 <g id="Layer_x0020_1">
  <metadata id="CorelCorpID_0Corel-Layer"/>
  <g id="_2065823117136">
   <path class="fil0" d="M4666 16043c0,-41 6,-24 27,-37l261 -123c76,-42 250,-149 303,-93 81,86 -42,159 -76,188 -30,26 -31,34 -54,57 -72,72 -73,31 -164,54 -37,9 -81,65 -156,65 -71,0 -141,-39 -141,-111zm1068 -15337c0,24 -1,68 -1,108 70,35 23,140 35,229 7,54 16,75 15,147 -1,105 17,96 17,132 0,82 -33,166 -120,195 -65,22 -169,-20 -226,-43 -134,-54 -272,-147 -272,-306 0,-100 141,-253 226,-319l157 -117c41,-26 132,-81 181,-65 -1,15 -6,28 -12,39zm-21 101c0,-27 0,-55 1,-78 -26,22 -64,35 -98,53 -120,63 -366,293 -366,386 0,90 78,160 153,193 35,16 194,78 237,78 99,0 84,6 84,-194 0,-61 -26,-95 -26,-153l5 -287c4,0 7,1 10,2zm-4120 513c12,-4 23,-8 34,-12 19,-8 36,-17 48,-27 1,-5 2,-13 4,-29 1,-9 6,-30 7,-51 2,-80 -63,-194 -110,-255 -59,-78 -92,-280 -168,-320 -1,3 -3,7 -4,9l-31 70c-26,53 -31,210 -36,275 -4,66 -16,102 -16,188 0,67 0,135 0,202 60,-12 97,-17 152,-27 35,-6 99,-34 105,-31 0,0 10,3 15,8zm95 -24c-14,11 -33,21 -54,30 -15,7 -31,12 -47,17 -9,8 -26,16 -53,27 -39,14 -72,17 -105,27 -138,38 -99,69 -184,66 0,-115 35,-419 34,-536 -1,-71 7,-75 14,-124 17,-105 38,-334 156,-223 75,71 112,196 148,280l23 53c18,39 3,14 23,42 21,31 40,51 57,86 17,37 32,64 44,98 37,107 -22,186 -56,157l0 0zm2309 2766l4 38 69 14c20,-26 28,-25 34,-63 -37,-37 -74,-44 -107,11zm-1270 -124l72 5c29,-49 28,-41 -1,-86 -74,-12 -94,12 -71,81zm1591 -18c0,66 48,45 92,41 3,-16 23,-86 -43,-91 -29,-3 -49,21 -49,50zm-1405 88c17,42 22,46 63,64 56,-22 55,-43 55,-79 -55,-39 -73,-49 -118,15zm721 801c-156,0 -230,-4 -387,-75l-115 -50c-44,-23 -67,-47 -122,-40 -37,62 -12,101 22,162 42,75 29,102 130,104 92,2 98,40 199,34 41,-3 50,-11 91,2 160,50 89,9 183,-2 33,-3 90,0 125,0 78,-134 105,-58 173,-123 28,-28 40,-51 68,-85 41,-48 59,-27 63,-97 -116,-44 -74,0 -197,84 -40,27 -177,86 -233,86zm-1092 -1996c-23,-42 -1,-40 5,-89 13,-95 -39,-222 111,-153 66,31 202,113 202,209 -42,40 -81,26 -153,40l-155 -3c-2,-4 -7,-3 -10,-4zm-235 -290c70,0 57,36 44,89 -35,140 21,228 -69,185 -58,-28 -281,-132 -201,-209 9,-9 92,-39 102,-42 9,-2 113,-23 124,-23zm-469 16c0,136 89,276 213,321 265,97 356,131 607,72 439,-104 360,124 380,191 31,104 238,104 199,-32 -30,-106 -165,-117 -186,-203 -21,-87 119,-268 -280,-474 -138,-72 -550,-57 -679,-14 -54,18 -254,81 -254,139zm2404 142c11,-55 6,-39 41,-63 56,-39 137,-89 204,-110 18,41 20,37 25,86 14,117 57,169 -43,156 -45,-6 -188,-34 -227,-69zm766 -155c13,61 -140,135 -192,165 -96,54 -109,39 -89,-228l232 32c49,16 28,2 49,31zm-1189 418l19 194c4,38 21,82 39,110 40,2 103,14 112,-95 11,-149 -83,-126 60,-254 129,-116 145,-65 248,-36 193,54 460,18 642,-61 175,-76 135,-79 261,-177 64,-50 25,-14 79,-86 25,-34 12,6 20,-36 11,-57 -60,-93 -100,-115 -164,-88 -164,-83 -330,-109 -311,-50 -726,129 -872,403 -44,82 -58,61 -106,114 -28,30 -72,100 -72,148zm-449 567c128,-36 409,-47 508,47 -23,39 -96,98 -136,142 -163,176 -151,149 -235,72 -57,-52 -41,-71 -119,-166 -31,-38 -31,-42 -18,-95zm119 496c0,76 -4,122 -95,188 -124,89 -320,48 -465,24 -124,-20 -221,16 -337,-146 -32,-45 -41,-128 -109,-128 -95,0 -137,140 13,279 147,138 727,245 942,126 26,-15 31,-25 64,-38 52,-21 86,-21 138,-7 122,32 122,124 432,123 261,-1 647,-50 749,-341 33,-93 -15,-203 -60,-265 -47,-64 -145,-111 -206,-106 -119,8 27,76 60,111 65,72 124,260 -19,320 -131,55 -454,128 -600,128 -80,0 -243,-12 -294,-74 -83,-103 -10,-214 32,-291 32,-57 47,-98 90,-140 121,-119 213,-114 205,-311 -94,-63 -105,-67 -241,-90l-395 -34c-248,0 -275,126 -147,303l129 179c32,44 114,150 114,190zm742 10798c26,-28 156,-29 238,-44l451 -17c10,71 -57,89 -112,117 -43,22 -120,65 -177,65 -88,0 -282,-58 -365,-96l-35 -25zm2026 -559c0,-48 -54,-96 -88,-113 -30,-15 -110,-41 -146,-42 -165,-5 -189,44 -293,-78l-139 -157c-119,-153 -146,-149 -297,-371 -26,-37 -59,-71 -86,-112l-151 -232c-209,-357 -192,-334 -243,-722 -36,-275 19,-339 21,-519 2,-121 103,-513 150,-622 45,-105 79,-177 154,-231 173,-121 34,-46 239,-144l269 -115c329,-105 366,-142 416,64 29,125 84,275 140,386 17,34 27,55 44,88 55,112 182,314 272,386 380,303 912,97 1057,-200 30,-60 59,-112 83,-182 100,-296 54,-142 117,-409 14,-57 32,-151 79,-177 1,2 4,5 5,7l42 258c11,78 28,181 32,277 2,51 14,75 21,127 7,51 1,98 4,148 3,54 21,71 29,127 18,115 4,595 -9,698l-79 522c-20,160 -142,538 -218,705 -6,16 -16,29 -27,49 -110,196 -188,327 -423,401 -76,24 -179,22 -195,110 -32,173 250,37 218,225 -8,46 -35,65 -72,87 -31,19 -61,41 -95,57l-299 162c-118,83 -240,146 -358,245 -92,79 -245,182 -351,251l-403 201c-430,161 -631,261 -1097,416 -77,26 -143,61 -219,87 -107,35 -247,96 -333,41 -75,-47 24,-63 -168,-147 -14,-54 -7,-104 1,-160 8,-53 -124,-173 268,-327l310 -119c267,-93 355,-149 586,-256 173,-80 447,-249 589,-366l167 -138c207,-169 476,71 476,-186zm-5554 -2850c-3,-42 -17,-64 -17,-110l0 -230c0,-46 17,-63 17,-121 0,-66 -25,-34 0,-124 70,21 64,45 102,92 91,113 302,259 429,316 51,22 96,28 143,44 80,26 247,47 315,44 175,-8 432,-86 584,-150 311,-131 192,-135 400,-86 275,65 557,142 788,319 120,92 183,192 261,287 32,39 46,76 75,112 79,100 256,532 271,649 9,69 18,96 30,156 37,183 23,371 23,555l-48 442c-38,234 -95,477 -220,658 -140,203 -118,156 -265,283 -115,99 -365,161 -365,273 0,199 231,96 500,151 83,16 169,30 255,50 118,28 184,31 201,106 -34,51 -130,62 -247,137 -128,83 -179,96 -268,236 -18,28 -21,47 -41,76 -79,-1 -179,-63 -303,-96 -37,-10 -44,-9 -82,-16l-145 -55c-136,-35 -234,-82 -361,-129 -145,-53 -454,-140 -607,-171 -110,-23 -203,-43 -275,-109 -66,-60 -129,-130 -136,-254 -9,-164 121,-133 121,-244 0,-120 -111,-187 -180,-250 -192,-176 -287,-319 -412,-531 -196,-333 -166,-329 -277,-674 -12,-38 -25,-60 -34,-98 -17,-72 -26,-157 -49,-227 -20,-61 -24,-171 -39,-235 -36,-149 -18,-177 -31,-234 -51,-238 -108,-461 -113,-710 -1,-43 3,-90 0,-132zm7019 -4210c0,-97 116,-198 202,-226 101,-33 209,-93 291,109 19,46 52,201 46,257l-192 1383c-2,62 3,86 -9,140 -17,76 17,94 -46,117l-44 -348c-33,-157 -44,-323 -67,-449 -7,-37 -1,-78 -5,-117l-105 -541c-11,-38 -11,-64 -18,-101 -20,-104 -53,-183 -53,-224zm-7247 -3233c0,-95 -35,-31 -7,-174 26,-138 -18,-51 55,-342l111 -488c80,-367 246,-724 312,-1092l32 -167c53,-290 77,-566 143,-854l119 -439c21,-40 15,-68 38,-104 135,-212 511,445 577,549l114 182c151,291 132,240 418,115 118,-52 227,-108 349,-146l127 -39c246,-44 247,-49 508,-49 36,0 69,17 120,18 174,3 342,29 503,70 40,10 71,20 111,33 75,26 137,42 214,71 239,89 212,92 394,176 71,32 115,62 182,103 49,30 140,88 197,88 84,0 -46,-138 -71,-159 -90,-77 -224,-122 -96,-248 27,-27 45,-44 72,-71 46,-47 94,-94 142,-143 90,-90 289,-282 401,-345l179 -106c26,-15 72,-45 96,-45 167,0 137,245 137,394 0,251 -14,1312 4,1473 33,291 113,569 132,862l25 679c3,79 -8,169 -8,230 0,60 9,88 2,157l-10 316c24,153 -4,207 81,349l309 371c124,129 323,350 409,501l245 424c23,42 16,44 34,85 80,184 172,375 223,565 63,240 111,494 155,741l58 285c20,172 128,728 136,876 3,47 12,63 16,101 4,40 0,67 7,103 10,50 25,155 28,191 9,134 34,280 34,416 0,458 -48,424 -87,777 -7,68 -56,247 -76,308 -74,224 -140,692 -279,852 -31,36 -48,67 -87,100 -101,85 -260,155 -402,155 -155,0 -269,-133 -339,-252 -69,-118 -125,-229 -178,-359l-217 -607 -407 -1556c-5,-21 -7,-31 -12,-51l-66 -331c0,-264 73,-138 138,-270 58,-117 38,-108 192,-114 3,-50 18,-76 17,-131 0,-29 -5,-48 -6,-68 -2,-37 6,-39 6,-64l-13 -291c-6,-94 -49,-433 113,-394 90,22 100,145 113,224 5,35 17,55 22,90 5,35 0,71 3,107 2,35 12,57 15,90 6,77 -11,368 65,388l18 5c14,3 17,2 31,3 181,15 123,177 193,201 44,16 18,1 86,14 86,16 107,123 107,210 0,213 -10,151 -17,273 -8,145 -86,294 -60,549 8,78 32,122 66,185 59,111 284,676 306,712 34,55 119,97 160,9 47,-103 0,-214 -32,-323 -11,-38 -22,-38 -38,-82 -31,-79 -116,-268 -163,-341 -198,-310 14,-392 -86,-1003 -24,-144 -54,-307 -178,-400 -67,-50 -81,-22 -141,-44 -42,-16 -68,-82 -90,-108 -53,-65 -98,-11 -129,-79 -1,-3 -2,-6 -3,-8 -1,-3 -3,-6 -4,-8 -30,-77 -4,-309 -15,-406 -13,-114 -49,-259 -146,-321 -84,-54 -170,-53 -219,38 -62,115 -41,165 -40,305 0,109 -23,207 -18,318 5,96 65,149 -87,240 -76,46 -61,101 -126,125 -74,27 -103,35 -138,115 -101,237 1,653 49,875 17,75 51,155 74,244 20,75 26,179 45,261 20,87 33,181 49,266l110 526c-4,158 -612,228 -836,421 -170,146 -182,169 -291,335 -58,89 -116,240 -133,352 -4,26 -1,46 -5,71 -9,58 -36,124 -40,191 -2,51 -17,102 -17,132l0 482c0,52 16,60 18,120 1,47 -4,89 5,129 14,66 39,157 59,216 56,166 151,300 224,455 71,149 274,414 395,548 50,56 86,90 132,143 21,25 39,52 63,78 61,64 154,154 50,234 -26,20 -51,30 -83,49 -57,35 -125,60 -193,80 -80,25 -528,72 -594,73 -84,0 -183,-7 -264,2 -95,12 -160,15 -264,15 -120,0 -136,-43 -111,-149l193 -486c8,-23 15,-77 24,-111 8,-29 16,-72 26,-103 20,-67 45,-158 49,-230 4,-64 11,-60 17,-110 8,-80 -4,-179 1,-262 9,-128 -8,-427 -39,-567 -3,-16 -12,-33 -16,-50l-119 -414c-76,-212 -245,-506 -401,-675 -180,-195 -332,-275 -576,-367 -84,-32 -338,-119 -349,-198 -16,-119 405,-465 489,-593l174 -230c145,-173 276,-355 401,-542 73,-108 153,-205 215,-322l198 -351c47,-87 113,-159 166,-239 54,-80 131,-135 184,-211 44,-65 79,-91 126,-149 111,-138 200,-256 249,-429 49,-174 112,-410 -48,-513 -41,-27 -41,-41 -66,-77 -58,-87 -64,-82 -4,-165l156 -248c210,-356 -125,-500 -346,-204l-117 168c-46,82 -138,194 -165,282 -76,0 -57,3 -110,-37 -28,-20 -54,-39 -90,-39 -237,0 -222,271 -307,271 -79,0 -223,-62 -300,119 -21,49 -36,112 -52,167 -62,223 -45,153 -127,322 -26,53 -51,93 -76,143 -52,106 -102,182 -175,264l-320 348c-130,139 -227,186 -368,300 -66,54 -198,158 -291,145 -56,-99 -100,-431 -122,-557l-39 -224c-21,-105 -21,-260 -168,-245 -170,253 291,875 47,1263 -66,105 -341,357 -341,445 0,50 5,106 73,110 78,4 125,-70 172,-114 28,-25 43,-46 70,-73 28,-28 48,-42 75,-67 94,-89 179,-199 280,-279 134,-107 242,-223 370,-332 35,-30 46,-26 83,-60l214 -202c58,-59 135,-109 186,-175 85,-108 162,-160 175,-176l232 -327c80,-120 163,-230 185,-378 1,-11 10,-119 12,-120 -39,-245 98,-300 184,-231 27,21 29,54 54,70 64,-48 137,-288 241,-288 158,0 81,55 175,130 59,-28 98,-85 133,-140l183 -256c49,-69 93,-151 148,-213 59,-65 201,-115 201,29 0,164 -256,449 -330,585 152,0 112,27 152,134 32,63 102,-9 102,180 0,202 -174,457 -268,572 -66,80 -141,141 -204,213 -71,82 -110,161 -168,249l-240 396c-78,127 -156,268 -241,384 -35,49 -51,76 -86,122l-87 121c-63,87 -111,169 -170,258 -60,91 -128,152 -184,233 -52,74 -142,146 -203,213 -451,501 -1044,1002 -1757,741 -97,-36 -186,-73 -250,-135 -142,-136 -246,-218 -369,-398 -60,-87 -109,-187 -170,-268 -36,-48 -56,-108 -81,-162l-44 -137c-10,-30 3,-30 -12,-67 -19,-46 -21,-8 -28,-62 -2,-17 -2,-44 -8,-69 -20,-82 -10,8 -32,-68 -9,-33 1,-59 -8,-91 -19,-64 -24,13 -26,-38 -1,-14 13,-45 13,-67 0,-51 -27,-100 -38,-148 -13,-60 -1,-91 -20,-158 -4,-17 -12,-57 -16,-63l-7 -8c-37,-54 -21,-128 -21,-182 0,-187 -30,-366 -36,-553 -2,-53 19,-75 19,-126l0 -187c0,-44 -11,-46 -18,-97 -6,-43 2,-48 2,-78 0,-116 -13,-96 -17,-164 -2,-32 0,-55 -4,-88 -14,-112 -8,-243 -14,-361 -2,-46 -16,-128 -16,-165l0 -230c0,-116 26,-444 47,-564 6,-33 2,-61 4,-94l69 -426c7,-36 5,-48 7,-90 2,-51 7,-44 15,-88 11,-65 24,-103 27,-163l72 -628c17,-91 -9,-194 9,-285 26,-126 21,-234 30,-359 3,-48 25,-128 25,-175zm4944 12014c0,-172 -57,-240 160,-337 84,-38 163,-59 248,-102 74,-37 164,-70 233,-118l436 -276c89,-58 135,-122 199,-162 32,-19 73,-44 108,-67 145,-98 187,-112 357,-180 301,-119 289,-312 372,-506 21,-48 36,-70 60,-115 106,-195 344,-492 402,-671 60,-184 99,-201 119,-404 9,-89 -10,-123 -10,-197 0,-66 41,-116 63,-161 29,-60 20,-126 33,-196l48 -696 -17 -537c0,-71 17,-173 17,-252l0 -340c0,-77 -27,-161 -26,-263 1,-91 9,-184 9,-285 1,-262 -18,-291 11,-556 20,-173 18,-373 45,-545 15,-92 -2,-200 8,-287 10,-87 36,-174 38,-256 2,-80 -13,-225 0,-277 9,-38 24,-67 33,-116l43 -243c9,-190 60,-206 39,-392 -33,-288 57,-213 -67,-506 -39,-93 -89,-158 -173,-199 -304,-153 -453,123 -506,124 -71,1 -74,-117 -91,-164 -27,-76 -50,-165 -93,-235 -60,-98 -98,-213 -143,-318 -43,-99 -282,-590 -359,-694 -72,-95 -151,-191 -238,-277l-369 -420c-34,-58 -44,-136 -58,-206 -22,-107 -12,-231 -28,-346 -12,-82 11,-50 11,-116l0 -822 -42 -362c-3,-115 -19,-274 -42,-366 -94,-381 -76,-602 -77,-982l-5 -304c16,-234 6,-480 6,-715 0,-323 -47,-460 -387,-338l-267 139c-45,35 -84,48 -122,87 -42,41 -77,60 -119,89l-298 315c-19,25 -29,25 -47,53 -49,80 -55,100 -131,177 -83,85 -210,23 -299,-19 -37,-18 -104,-45 -152,-57 -82,-20 -166,-25 -246,-52 -37,-13 -30,-20 -80,-31 -47,-11 -35,-8 -75,-25l-273 -48c-128,1 -252,-17 -383,-17 -98,0 -308,4 -394,21 -43,9 -30,17 -73,27l-238 83c-50,21 -83,44 -136,70 -38,18 -30,11 -60,38 -127,113 -165,-30 -217,-118 -19,-32 -22,-25 -40,-60l-115 -181c-22,-26 -21,-34 -36,-62 -26,-49 -58,-82 -80,-117 -13,-20 -19,-38 -35,-63l-146 -216c-107,-138 -310,-274 -484,-193 -147,69 -183,228 -224,378l-154 645c-33,159 -65,354 -74,516 -2,35 -15,139 -23,179l-123 479c-24,78 -56,145 -74,225 -6,25 -7,56 -15,83 -13,50 -44,114 -51,155 -21,127 -50,198 -77,320 -35,156 -65,392 -93,510 -35,149 -47,165 -64,327 -5,52 -1,130 -12,186 -24,116 -38,215 -32,337 4,82 9,80 -14,167 -16,59 -24,117 -23,189 0,120 8,276 -1,393 -4,51 -23,100 -34,163l-99 698c-21,116 -25,253 -35,369 -6,75 -18,113 -18,185l0 988c1,79 19,108 37,178 36,139 9,177 6,282 -1,64 -2,133 -1,197 1,61 16,118 23,180 7,63 -1,125 7,189 9,70 14,116 13,190 -1,121 21,241 41,360l229 956c99,341 179,647 179,1030 0,142 26,222 25,373 -2,419 26,311 57,539 10,77 1,96 20,179 13,52 9,117 19,178 16,103 57,220 70,323 33,259 113,549 201,797 31,87 91,173 127,279 110,329 262,334 404,594 27,49 28,94 37,158 9,65 16,114 25,176 8,53 7,133 18,179 22,96 77,185 145,248 64,58 344,162 425,175 66,11 92,28 155,43 66,15 63,43 132,67 146,52 312,88 458,145 177,69 252,72 435,169 85,46 181,78 265,129l251 143c203,96 189,140 467,140 311,-1 225,145 449,139 72,-2 129,13 181,-6l147 -49c68,-15 85,-31 128,-69 79,-68 39,-33 143,-56 47,-10 101,-46 101,-104z"/>
   <path class="fil1" d="M3507 3772c84,77 72,104 235,-72 40,-44 113,-103 136,-142 -99,-94 -380,-83 -508,-47 -13,53 -13,57 18,95 78,95 62,114 119,166zm-1821 -2571c2,-80 -63,-194 -110,-255 -59,-78 -92,-280 -168,-320 -1,3 -3,7 -4,9l-31 70c-26,53 -31,210 -36,275 -4,66 -16,102 -16,188 0,67 0,135 0,202 60,-12 97,-17 152,-27 35,-6 99,-34 105,-31 0,0 10,3 15,8 12,-4 23,-8 34,-12 19,-8 36,-17 48,-27 1,-5 2,-13 4,-29 1,-9 6,-30 7,-51zm3564 -33c0,90 78,160 153,193 35,16 194,78 237,78 99,0 84,6 84,-194 0,-61 -26,-95 -26,-153l5 -287 10 2c0,-27 0,-55 1,-78 -26,22 -64,35 -98,53 -120,63 -366,293 -366,386z"/>
   <path class="fil2" d="M4821 4087c-102,291 -488,340 -749,341 -310,1 -310,-91 -432,-123 -52,-14 -86,-14 -138,7 -33,13 -38,23 -64,38 -215,119 -795,12 -942,-126 -150,-139 -108,-279 -13,-279 68,0 77,83 109,128 116,162 213,126 337,146 145,24 341,65 465,-24 91,-66 95,-112 95,-188 0,-40 -82,-146 -114,-190l-129 -179c-128,-177 -101,-303 147,-303l395 34c136,23 147,27 241,90 8,197 -84,192 -205,311 -43,42 -58,83 -90,140 -42,77 -115,188 -32,291 51,62 214,74 294,74 146,0 469,-73 600,-128 143,-60 84,-248 19,-320 -33,-35 -179,-103 -60,-111 61,-5 159,42 206,106 45,62 93,172 60,265zm-2539 -1290c90,43 34,-45 69,-185 13,-53 26,-89 -44,-89 -11,0 -115,21 -124,23 -10,3 -93,33 -102,42 -80,77 143,181 201,209zm578 -17c0,-96 -136,-178 -202,-209 -150,-69 -98,58 -111,153 -6,49 -28,47 -5,89 3,1 8,0 10,4l155 3c72,-14 111,0 153,-40zm1609 -30c100,13 57,-39 43,-156 -5,-49 -7,-45 -25,-86 -67,21 -148,71 -204,110 -35,24 -30,8 -41,63 39,35 182,63 227,69zm347 -59c52,-30 205,-104 192,-165 -21,-29 0,-15 -49,-31l-232 -32c-20,267 -7,282 89,228zm2977 4820l105 541c4,39 -2,80 5,117 23,126 34,292 67,449l44 348c63,-23 29,-41 46,-117 12,-54 7,-78 9,-140l192 -1383c6,-56 -27,-211 -46,-257 -82,-202 -190,-142 -291,-109 -86,28 -202,129 -202,226 0,41 33,120 53,224 7,37 7,63 18,101zm-2839 8372l-261 123c-21,13 -27,-4 -27,37 0,72 70,111 141,111 75,0 119,-56 156,-65 91,-23 92,18 164,-54 23,-23 24,-31 54,-57 34,-29 157,-102 76,-188 -53,-56 -227,51 -303,93zm-883 -3445c-15,-117 -192,-549 -271,-649 -29,-36 -43,-73 -75,-112 -78,-95 -141,-195 -261,-287 -231,-177 -513,-254 -788,-319 -208,-49 -89,-45 -400,86 -152,64 -409,142 -584,150 -68,3 -235,-18 -315,-44 -47,-16 -92,-22 -143,-44 -127,-57 -338,-203 -429,-316 -38,-47 -32,-71 -102,-92 -25,90 0,58 0,124 0,58 -17,75 -17,121l0 230c0,46 14,68 17,110 3,42 -1,89 0,132 5,249 62,472 113,710 13,57 -5,85 31,234 15,64 19,174 39,235 23,70 32,155 49,227 9,38 22,60 34,98 111,345 81,341 277,674 125,212 220,355 412,531 69,63 180,130 180,250 0,111 -130,80 -121,244 7,124 70,194 136,254 72,66 165,86 275,109 153,31 462,118 607,171 127,47 225,94 361,129l145 55c38,7 45,6 82,16 124,33 224,95 303,96 20,-29 23,-48 41,-76 89,-140 140,-153 268,-236 117,-75 213,-86 247,-137 -17,-75 -83,-78 -201,-106 -86,-20 -172,-34 -255,-50 -269,-55 -500,48 -500,-151 0,-112 250,-174 365,-273 147,-127 125,-80 265,-283 125,-181 182,-424 220,-658l48 -442c0,-184 14,-372 -23,-555 -12,-60 -21,-87 -30,-156zm1576 -1650l-269 115c-205,98 -66,23 -239,144 -75,54 -109,126 -154,231 -47,109 -148,501 -150,622 -2,180 -57,244 -21,519 51,388 34,365 243,722l151 232c27,41 60,75 86,112 151,222 178,218 297,371l139 157c104,122 128,73 293,78 36,1 116,27 146,42 34,17 88,65 88,113 0,257 -269,17 -476,186l-167 138c-142,117 -416,286 -589,366 -231,107 -319,163 -586,256l-310 119c-392,154 -260,274 -268,327 -8,56 -15,106 -1,160 192,84 93,100 168,147 86,55 226,-6 333,-41 76,-26 142,-61 219,-87 466,-155 667,-255 1097,-416l403 -201c106,-69 259,-172 351,-251 118,-99 240,-162 358,-245l299 -162c34,-16 64,-38 95,-57 37,-22 64,-41 72,-87 32,-188 -250,-52 -218,-225 16,-88 119,-86 195,-110 235,-74 313,-205 423,-401 11,-20 21,-33 27,-49 76,-167 198,-545 218,-705l79 -522c13,-103 27,-583 9,-698 -8,-56 -26,-73 -29,-127 -3,-50 3,-97 -4,-148 -7,-52 -19,-76 -21,-127 -4,-96 -21,-199 -32,-277l-42 -258 -5 -7c-47,26 -65,120 -79,177 -63,267 -17,113 -117,409 -24,70 -53,122 -83,182 -145,297 -677,503 -1057,200 -90,-72 -217,-274 -272,-386 -17,-33 -27,-54 -44,-88 -56,-111 -111,-261 -140,-386 -50,-206 -87,-169 -416,-64zm-2876 -8374c399,206 259,387 280,474 21,86 156,97 186,203 39,136 -168,136 -199,32 -20,-67 59,-295 -380,-191 -251,59 -342,25 -607,-72 -124,-45 -213,-185 -213,-321 0,-58 200,-121 254,-139 129,-43 541,-58 679,14zm-1027 -1275c37,107 -22,186 -56,157l0 0c-14,11 -33,21 -54,30 -15,7 -31,12 -47,17 -9,8 -26,16 -53,27 -39,14 -72,17 -105,27 -138,38 -99,69 -184,66 0,-115 35,-419 34,-536 -1,-71 7,-75 14,-124 17,-105 38,-334 156,-223 75,71 112,196 148,280l23 53c18,39 3,14 23,42 21,31 40,51 57,86 17,37 32,64 44,98zm3710 335c-134,-54 -272,-147 -272,-306 0,-100 141,-253 226,-319l157 -117c41,-26 132,-81 181,-65 -1,15 -6,28 -12,39 0,24 -1,68 -1,108 70,35 23,140 35,229 7,54 16,75 15,147 -1,105 17,96 17,132 0,82 -33,166 -120,195 -65,22 -169,-20 -226,-43zm-670 9702c109,-166 121,-189 291,-335 224,-193 832,-263 836,-421l-110 -526c-16,-85 -29,-179 -49,-266 -19,-82 -25,-186 -45,-261 -23,-89 -57,-169 -74,-244 -48,-222 -150,-638 -49,-875 35,-80 64,-88 138,-115 65,-24 50,-79 126,-125 152,-91 92,-144 87,-240 -5,-111 18,-209 18,-318 -1,-140 -22,-190 40,-305 49,-91 135,-92 219,-38 97,62 133,207 146,321 11,97 -15,329 15,406l4 8 3 8c31,68 76,14 129,79 22,26 48,92 90,108 60,22 74,-6 141,44 124,93 154,256 178,400 100,611 -112,693 86,1003 47,73 132,262 163,341 16,44 27,44 38,82 32,109 79,220 32,323 -41,88 -126,46 -160,-9 -22,-36 -247,-601 -306,-712 -34,-63 -58,-107 -66,-185 -26,-255 52,-404 60,-549 7,-122 17,-60 17,-273 0,-87 -21,-194 -107,-210 -68,-13 -42,2 -86,-14 -70,-24 -12,-186 -193,-201 -14,-1 -17,0 -31,-3l-18 -5c-76,-20 -59,-311 -65,-388 -3,-33 -13,-55 -15,-90 -3,-36 2,-72 -3,-107 -5,-35 -17,-55 -22,-90 -13,-79 -23,-202 -113,-224 -162,-39 -119,300 -113,394l13 291c0,25 -8,27 -6,64 1,20 6,39 6,68 1,55 -14,81 -17,131 -154,6 -134,-3 -192,114 -65,132 -138,6 -138,270l66 331c5,20 7,30 12,51l407 1556 217 607c53,130 109,241 178,359 70,119 184,252 339,252 142,0 301,-70 402,-155 39,-33 56,-64 87,-100 139,-160 205,-628 279,-852 20,-61 69,-240 76,-308 39,-353 87,-319 87,-777 0,-136 -25,-282 -34,-416 -3,-36 -18,-141 -28,-191 -7,-36 -3,-63 -7,-103 -4,-38 -13,-54 -16,-101 -8,-148 -116,-704 -136,-876l-58 -285c-44,-247 -92,-501 -155,-741 -51,-190 -143,-381 -223,-565 -18,-41 -11,-43 -34,-85l-245 -424c-86,-151 -285,-372 -409,-501l-309 -371c-85,-142 -57,-196 -81,-349l10 -316c7,-69 -2,-97 -2,-157 0,-61 11,-151 8,-230l-25 -679c-19,-293 -99,-571 -132,-862 -18,-161 -4,-1222 -4,-1473 0,-149 30,-394 -137,-394 -24,0 -70,30 -96,45l-179 106c-112,63 -311,255 -401,345l-142 143 -72 71c-128,126 6,171 96,248 25,21 155,159 71,159 -57,0 -148,-58 -197,-88 -67,-41 -111,-71 -182,-103 -182,-84 -155,-87 -394,-176 -77,-29 -139,-45 -214,-71 -40,-13 -71,-23 -111,-33 -161,-41 -329,-67 -503,-70 -51,-1 -84,-18 -120,-18 -261,0 -262,5 -508,49l-127 39c-122,38 -231,94 -349,146 -286,125 -267,176 -418,-115l-114 -182c-66,-104 -442,-761 -577,-549 -23,36 -17,64 -38,104l-119 439c-66,288 -90,564 -143,854l-32 167c-66,368 -232,725 -312,1092l-111 488c-73,291 -29,204 -55,342 -28,143 7,79 7,174 0,47 -22,127 -25,175 -9,125 -4,233 -30,359 -18,91 8,194 -9,285l-72 628c-3,60 -16,98 -27,163 -8,44 -13,37 -15,88 -2,42 0,54 -7,90l-69 426c-2,33 2,61 -4,94 -21,120 -47,448 -47,564l0 230c0,37 14,119 16,165 6,118 0,249 14,361 4,33 2,56 4,88 4,68 17,48 17,164 0,30 -8,35 -2,78 7,51 18,53 18,97l0 187c0,51 -21,73 -19,126 6,187 36,366 36,553 0,54 -16,128 21,182l7 8c4,6 12,46 16,63 19,67 7,98 20,158 11,48 38,97 38,148 0,22 -14,53 -13,67 2,51 7,-26 26,38 9,32 -1,58 8,91 22,76 12,-14 32,68 6,25 6,52 8,69 7,54 9,16 28,62 15,37 2,37 12,67l44 137c25,54 45,114 81,162 61,81 110,181 170,268 123,180 227,262 369,398 64,62 153,99 250,135 713,261 1306,-240 1757,-741 61,-67 151,-139 203,-213 56,-81 124,-142 184,-233 59,-89 107,-171 170,-258l87 -121c35,-46 51,-73 86,-122 85,-116 163,-257 241,-384l240 -396c58,-88 97,-167 168,-249 63,-72 138,-133 204,-213 94,-115 268,-370 268,-572 0,-189 -70,-117 -102,-180 -40,-107 0,-134 -152,-134 74,-136 330,-421 330,-585 0,-144 -142,-94 -201,-29 -55,62 -99,144 -148,213l-183 256c-35,55 -74,112 -133,140 -94,-75 -17,-130 -175,-130 -104,0 -177,240 -241,288 -25,-16 -27,-49 -54,-70 -86,-69 -223,-14 -184,231 -2,1 -11,109 -12,120 -22,148 -105,258 -185,378l-232 327c-13,16 -90,68 -175,176 -51,66 -128,116 -186,175l-214 202c-37,34 -48,30 -83,60 -128,109 -236,225 -370,332 -101,80 -186,190 -280,279 -27,25 -47,39 -75,67 -27,27 -42,48 -70,73 -47,44 -94,118 -172,114 -68,-4 -73,-60 -73,-110 0,-88 275,-340 341,-445 244,-388 -217,-1010 -47,-1263 147,-15 147,140 168,245l39 224c22,126 66,458 122,557 93,13 225,-91 291,-145 141,-114 238,-161 368,-300l320 -348c73,-82 123,-158 175,-264 25,-50 50,-90 76,-143 82,-169 65,-99 127,-322 16,-55 31,-118 52,-167 77,-181 221,-119 300,-119 85,0 70,-271 307,-271 36,0 62,19 90,39 53,40 34,37 110,37 27,-88 119,-200 165,-282l117 -168c221,-296 556,-152 346,204l-156 248c-60,83 -54,78 4,165 25,36 25,50 66,77 160,103 97,339 48,513 -49,173 -138,291 -249,429 -47,58 -82,84 -126,149 -53,76 -130,131 -184,211 -53,80 -119,152 -166,239l-198 351c-62,117 -142,214 -215,322 -125,187 -256,369 -401,542l-174 230c-84,128 -505,474 -489,593 11,79 265,166 349,198 244,92 396,172 576,367 156,169 325,463 401,675l119 414c4,17 13,34 16,50 31,140 48,439 39,567 -5,83 7,182 -1,262 -6,50 -13,46 -17,110 -4,72 -29,163 -49,230 -10,31 -18,74 -26,103 -9,34 -16,88 -24,111l-193 486c-25,106 -9,149 111,149 104,0 169,-3 264,-15 81,-9 180,-2 264,-2 66,-1 514,-48 594,-73 68,-20 136,-45 193,-80 32,-19 57,-29 83,-49 104,-80 11,-170 -50,-234 -24,-26 -42,-53 -63,-78 -46,-53 -82,-87 -132,-143 -121,-134 -324,-399 -395,-548 -73,-155 -168,-289 -224,-455 -20,-59 -45,-150 -59,-216 -9,-40 -4,-82 -5,-129 -2,-60 -18,-68 -18,-120l0 -482c0,-30 15,-81 17,-132 4,-67 31,-133 40,-191 4,-25 1,-45 5,-71 17,-112 75,-263 133,-352zm-714 -7062l-69 -14 -4 -38c33,-55 70,-48 107,-11 -6,38 -14,37 -34,63zm-1039 -121c0,36 1,57 -55,79 -41,-18 -46,-22 -63,-64 45,-64 63,-54 118,-15zm-232 -50l-72 -5c-23,-69 -3,-93 71,-81 29,45 30,37 1,86zm1611 18c-44,4 -92,25 -92,-41 0,-29 20,-53 49,-50 66,5 46,75 43,91zm-477 860c-68,65 -95,-11 -173,123 -35,0 -92,-3 -125,0 -94,11 -23,52 -183,2 -41,-13 -50,-5 -91,-2 -101,6 -107,-32 -199,-34 -101,-2 -88,-29 -130,-104 -34,-61 -59,-100 -22,-162 55,-7 78,17 122,40l115 50c157,71 231,75 387,75 56,0 193,-59 233,-86 123,-84 81,-128 197,-84 -4,70 -22,49 -63,97 -28,34 -40,57 -68,85zm1006 -2019c-182,79 -449,115 -642,61 -103,-29 -119,-80 -248,36 -143,128 -49,105 -60,254 -9,109 -72,97 -112,95 -18,-28 -35,-72 -39,-110l-19 -194c0,-48 44,-118 72,-148 48,-53 62,-32 106,-114 146,-274 561,-453 872,-403 166,26 166,21 330,109 40,22 111,58 100,115 -8,42 5,2 -20,36 -54,72 -15,36 -79,86 -126,98 -86,101 -261,177z"/>
  </g>
 </g>
</svg>
